<svg id="Component_40_1" data-name="Component 40 – 1" xmlns="http://www.w3.org/2000/svg" xmlns:xlink="http://www.w3.org/1999/xlink" width="181" height="181" viewBox="0 0 181 181">
  <defs>
    <clipPath id="clip-path">
      <path id="Path_2962" data-name="Path 2962" d="M0,0H137V-137H0Z" fill="none"/>
    </clipPath>
  </defs>
  <g id="Group_11177" data-name="Group 11177" transform="translate(-294 -361)">
    <circle id="Ellipse_178" data-name="Ellipse 178" cx="90.5" cy="90.5" r="90.5" transform="translate(294 361)" fill="#d8e5ea"/>
    <g id="Group_11165" data-name="Group 11165" transform="translate(316 520)">
      <g id="Group_11163" data-name="Group 11163" clip-path="url(#clip-path)">
        <g id="Group_11161" data-name="Group 11161" transform="translate(68.5 -1)">
          <path id="Path_2960" data-name="Path 2960" d="M0,0A67.5,67.5,0,0,0,67.5-67.5,67.5,67.5,0,0,0,0-135,67.5,67.5,0,0,0-67.5-67.5,67.5,67.5,0,0,0,0,0Z" fill="none" stroke="#005674" stroke-width="3"/>
        </g>
        <g id="Group_11162" data-name="Group 11162" transform="translate(68.5 -135.5)">
          <path id="Path_2961" data-name="Path 2961" d="M0,0V68l56,35" fill="none" stroke="#005674" stroke-linecap="round" stroke-width="3"/>
        </g>
      </g>
      <g id="Group_11164" data-name="Group 11164" transform="translate(68.5 -67.5)">
        <path id="Path_2963" data-name="Path 2963" d="M0,0,56-38" fill="none" stroke="#005674" stroke-linecap="round" stroke-width="3"/>
      </g>
    </g>
  </g>
</svg>
