<svg id="Component_43_1" data-name="Component 43 – 1" xmlns="http://www.w3.org/2000/svg" xmlns:xlink="http://www.w3.org/1999/xlink" width="181" height="181" viewBox="0 0 181 181">
  <defs>
    <clipPath id="clip-path">
      <path id="Path_2965" data-name="Path 2965" d="M0,0H78.9V-116.154H0Z" fill="none"/>
    </clipPath>
  </defs>
  <g id="Group_11180" data-name="Group 11180" transform="translate(-294 -1096)">
    <circle id="Ellipse_181" data-name="Ellipse 181" cx="90.5" cy="90.5" r="90.5" transform="translate(294 1096)" fill="#d8e5ea"/>
    <g id="Group_11168" data-name="Group 11168" transform="translate(345 1244.577)">
      <g id="Group_11167" data-name="Group 11167" clip-path="url(#clip-path)">
        <g id="Group_11166" data-name="Group 11166" transform="translate(77.896 -42.29)">
          <path id="Path_2964" data-name="Path 2964" d="M0,0C0-31.332-47-22.831-47-33.032c0-2.914,2.671-5.343,11.051-5.343,7.408,0,15.3,2.064,23.681,6.315l8.622-20.766C-10.565-56.712-19.309-59.02-28.3-59.87V-72.864H-45.419v13.237C-65.335-56.834-75.293-45.3-75.293-31.574c0,31.695,47,23.073,47,33.76C-28.3,5.1-31.21,6.8-39.347,6.8A58.313,58.313,0,0,1-67.4-.972l-9.23,20.888c7.287,4.493,19.066,7.772,31.21,8.5V41.29H-28.3V27.81C-9.472,24.531,0,13.116,0,0Z" fill="none" stroke="#005674" stroke-miterlimit="5.631" stroke-width="3"/>
        </g>
      </g>
    </g>
  </g>
</svg>
